<svg
    width="18"
    height="18" viewBox="0 0 18 18" fill="none" xmlns="http://www.w3.org/2000/svg">
<path d="M2.56603 4.86603L6.2622 2.73205L3.79808 7.00001L2.56603 4.86603ZM2.2 8.23205L2.64338 9L2.2 9.76796L2.2 8.23205ZM2.56603 13.134L3.79808 11L6.26218 15.2679L2.56603 13.134ZM4.95278 9.00001L8.99425 2L13.0357 9L8.99423 16L4.95278 9.00001ZM14.1904 7.00001L11.7263 2.73205L15.4225 4.86602L14.1904 7.00001ZM11.7263 15.2679L14.1904 11L15.4224 13.134L11.7263 15.2679ZM15.7885 9.76796L15.3451 9.00001L15.7885 8.23206L15.7885 9.76796Z" stroke="#2B5CDA" stroke-width="2"/>
<path d="M15.4225 4.86602L8.99423 16L2.56603 4.86603L8.99425 1.1547L15.4225 4.86602Z" stroke="#C8D7FF" stroke-width="2"/>
</svg>
