<svg width="200" height="200" viewBox="0 0 200 200" fill="none" xmlns="http://www.w3.org/2000/svg">
<path fill-rule="evenodd" clip-rule="evenodd" d="M100 156.3C154.124 156.3 198 126.684 198 90.15C198 53.6164 154.124 24 100 24C45.8761 24 2 53.6164 2 90.15C2 126.684 45.8761 156.3 100 156.3ZM113.23 140.62C153.552 140.62 186.24 126.41 186.24 94.56C186.24 65.65 153.552 48.5 113.23 48.5C72.9077 48.5 40.22 69.1218 40.22 94.56C40.22 119.998 72.9077 140.62 113.23 140.62Z" fill="url(#paint0_linear)"/>
<path fill-rule="evenodd" clip-rule="evenodd" d="M79.42 65.16V126.9V175.41H112.74V132.29H119.487C124.368 132.29 128.839 135.025 131.061 139.371L149.49 175.41H187.71L167.152 140.535C162.762 133.088 155.479 127.795 147.04 125.92C163.658 126.456 177.42 113.13 177.42 96.5042V95.5322C177.42 78.7581 163.822 65.16 147.048 65.16H79.42ZM112.74 88.68V108.28H133.32C138.732 108.28 143.12 103.892 143.12 98.48C143.12 93.0676 138.732 88.68 133.32 88.68H112.74Z" fill="#2165B6"/>
<defs>
<linearGradient id="paint0_linear" x1="2" y1="24" x2="198" y2="156.3" gradientUnits="userSpaceOnUse">
<stop stop-color="#D4D4D4"/>
<stop offset="1" stop-color="#878787"/>
</linearGradient>
</defs>
</svg>
